<svg width="40" height="41" viewBox="0 0 40 41" fill="none" xmlns="http://www.w3.org/2000/svg">
<path d="M19.8034 0.981934C8.91396 0.981934 0.0761719 9.81972 0.0761719 20.7091C0.0761719 31.5985 8.91396 40.4363 19.8034 40.4363C30.6928 40.4363 39.5306 31.5985 39.5306 20.7091C39.5306 9.81972 30.6928 0.981934 19.8034 0.981934ZM19.8034 6.90009C23.0781 6.90009 25.7215 9.54354 25.7215 12.8183C25.7215 16.093 23.0781 18.7364 19.8034 18.7364C16.5287 18.7364 13.8852 16.093 13.8852 12.8183C13.8852 9.54354 16.5287 6.90009 19.8034 6.90009ZM19.8034 34.9127C14.8716 34.9127 10.5119 32.3876 7.96705 28.5606C8.02623 24.6348 15.8579 22.4846 19.8034 22.4846C23.7291 22.4846 31.5805 24.6348 31.6397 28.5606C29.0949 32.3876 24.7352 34.9127 19.8034 34.9127Z" fill="white"/>
</svg>
