<svg width="35" height="37" viewBox="0 0 35 37" fill="none" xmlns="http://www.w3.org/2000/svg">
<rect x="1.6461" y="2.36485" width="20.9189" height="28.7519" rx="5.40861" stroke="white" stroke-width="3.2922"/>
<path fill-rule="evenodd" clip-rule="evenodd" d="M9.02441 32.7625C9.40094 32.9778 9.8028 33.1613 10.2277 33.3082L19.7745 36.6102C23.4567 37.8838 27.4741 35.9312 28.7477 32.2491L34.6101 15.2995C35.8837 11.6174 33.9311 7.59993 30.2489 6.32636L22.9991 3.81885C23.7549 4.93344 24.2001 6.27571 24.2105 7.72137L29.1728 9.43771C31.1366 10.1169 32.178 12.2596 31.4987 14.2234L25.6363 31.1729C24.9571 33.1368 22.8145 34.1781 20.8506 33.4989L18.4036 32.6525C17.9986 32.7248 17.5817 32.7625 17.1559 32.7625H9.02441Z" fill="white"/>
</svg>
