<svg width="30" height="11" viewBox="0 0 30 11" fill="none" xmlns="http://www.w3.org/2000/svg">
<mask id="path-1-inside-1_499_14" fill="white">
<path fill-rule="evenodd" clip-rule="evenodd" d="M9.94017 5.3162L4.97011 0.252441L5.98685e-05 5.3162H9.94017ZM0 5.31625L4.97006 10.38L9.94011 5.31625L0 5.31625Z"/>
</mask>
<path fill-rule="evenodd" clip-rule="evenodd" d="M9.94017 5.3162L4.97011 0.252441L5.98685e-05 5.3162H9.94017ZM0 5.31625L4.97006 10.38L9.94011 5.31625L0 5.31625Z" fill="white"/>
<path d="M4.97011 0.252441L5.93382 -0.693432L4.97011 -1.67531L4.00641 -0.693432L4.97011 0.252441ZM9.94017 5.3162V6.66654H13.1576L10.9039 4.37033L9.94017 5.3162ZM5.98685e-05 5.3162L-0.963646 4.37033L-3.21736 6.66654H5.98685e-05V5.3162ZM4.97006 10.38L4.00635 11.3259L4.97006 12.3078L5.93376 11.3259L4.97006 10.38ZM0 5.31625L-1.29554e-07 3.96591L-3.21742 3.96591L-0.963706 6.26212L0 5.31625ZM9.94011 5.31625L10.9038 6.26212L13.1575 3.96591L9.94011 3.96591L9.94011 5.31625ZM4.00641 1.19831L8.97646 6.26207L10.9039 4.37033L5.93382 -0.693432L4.00641 1.19831ZM0.963766 6.26207L5.93382 1.19831L4.00641 -0.693432L-0.963646 4.37033L0.963766 6.26207ZM9.94017 3.96586H5.98685e-05V6.66654H9.94017V3.96586ZM5.93376 9.43413L0.963706 4.37038L-0.963706 6.26212L4.00635 11.3259L5.93376 9.43413ZM8.9764 4.37037L4.00635 9.43413L5.93376 11.3259L10.9038 6.26212L8.9764 4.37037ZM1.29554e-07 6.66658L9.94011 6.66658L9.94011 3.96591L-1.29554e-07 3.96591L1.29554e-07 6.66658Z" fill="white" mask="url(#path-1-inside-1_499_14)"/>
<mask id="path-3-inside-2_499_14" fill="white">
<path fill-rule="evenodd" clip-rule="evenodd" d="M19.9743 5.3162L15.0043 0.252441L10.0342 5.3162H19.9743ZM10.0342 5.31625L15.0042 10.38L19.9743 5.31625L10.0342 5.31625Z"/>
</mask>
<path fill-rule="evenodd" clip-rule="evenodd" d="M19.9743 5.3162L15.0043 0.252441L10.0342 5.3162H19.9743ZM10.0342 5.31625L15.0042 10.38L19.9743 5.31625L10.0342 5.31625Z" fill="white"/>
<path d="M15.0043 0.252441L15.968 -0.693432L15.0043 -1.67531L14.0406 -0.693432L15.0043 0.252441ZM19.9743 5.3162V6.66654H23.1918L20.9381 4.37033L19.9743 5.3162ZM10.0342 5.3162L9.07053 4.37033L6.81682 6.66654H10.0342V5.3162ZM15.0042 10.38L14.0405 11.3259L15.0042 12.3078L15.9679 11.3259L15.0042 10.38ZM10.0342 5.31625L10.0342 3.96591L6.81676 3.96591L9.07047 6.26212L10.0342 5.31625ZM19.9743 5.31625L20.938 6.26212L23.1917 3.96591L19.9743 3.96591L19.9743 5.31625ZM14.0406 1.19831L19.0106 6.26207L20.9381 4.37033L15.968 -0.693432L14.0406 1.19831ZM10.9979 6.26207L15.968 1.19831L14.0406 -0.693432L9.07053 4.37033L10.9979 6.26207ZM19.9743 3.96586H10.0342V6.66654H19.9743V3.96586ZM15.9679 9.43413L10.9979 4.37038L9.07047 6.26212L14.0405 11.3259L15.9679 9.43413ZM19.0106 4.37037L14.0405 9.43413L15.9679 11.3259L20.938 6.26212L19.0106 4.37037ZM10.0342 6.66658L19.9743 6.66658L19.9743 3.96591L10.0342 3.96591L10.0342 6.66658Z" fill="white" mask="url(#path-3-inside-2_499_14)"/>
<mask id="path-5-inside-3_499_14" fill="white">
<path fill-rule="evenodd" clip-rule="evenodd" d="M29.5954 5.31625L24.9177 0.252441L20.24 5.31625H19.8232L24.7933 10.38L29.6381 5.44381H29.7133L29.6769 5.40438L29.7634 5.31625H29.5954Z"/>
</mask>
<path fill-rule="evenodd" clip-rule="evenodd" d="M29.5954 5.31625L24.9177 0.252441L20.24 5.31625H19.8232L24.7933 10.38L29.6381 5.44381H29.7133L29.6769 5.40438L29.7634 5.31625H29.5954Z" fill="white"/>
<path d="M24.9177 0.252441L25.9096 -0.66383L24.9177 -1.73759L23.9258 -0.66383L24.9177 0.252441ZM29.5954 5.31625L28.6036 6.23252L29.0045 6.66658H29.5954V5.31625ZM20.24 5.31625V6.66658H20.8309L21.2319 6.23252L20.24 5.31625ZM19.8232 5.31625V3.96591H16.6058L18.8595 6.26212L19.8232 5.31625ZM24.7933 10.38L23.8296 11.3259L24.7933 12.3078L25.757 11.3259L24.7933 10.38ZM29.6381 5.44381V4.09348H29.0714L28.6744 4.49794L29.6381 5.44381ZM29.7133 5.44381V6.79415H32.799L30.7052 4.52754L29.7133 5.44381ZM29.6769 5.40438L28.7131 4.45851L27.8125 5.37615L28.685 6.32064L29.6769 5.40438ZM29.7634 5.31625L30.7271 6.26212L32.9808 3.96591L29.7634 3.96591V5.31625ZM23.9258 1.16871L28.6036 6.23252L30.5873 4.39998L25.9096 -0.66383L23.9258 1.16871ZM21.2319 6.23252L25.9096 1.16871L23.9258 -0.66383L19.2481 4.39998L21.2319 6.23252ZM19.8232 6.66658H20.24V3.96591H19.8232V6.66658ZM25.757 9.43413L20.7869 4.37038L18.8595 6.26212L23.8296 11.3259L25.757 9.43413ZM28.6744 4.49794L23.8296 9.43413L25.757 11.3259L30.6019 6.38968L28.6744 4.49794ZM29.7133 4.09348H29.6381V6.79415H29.7133V4.09348ZM28.685 6.32064L28.7214 6.36008L30.7052 4.52754L30.6688 4.48811L28.685 6.32064ZM28.7996 4.37038L28.7131 4.45851L30.6406 6.35025L30.7271 6.26212L28.7996 4.37038ZM29.5954 6.66658H29.7634V3.96591H29.5954V6.66658Z" fill="white" mask="url(#path-5-inside-3_499_14)"/>
</svg>
