<svg width="100" height="100" viewBox="0 0 100 100" fill="none" xmlns="http://www.w3.org/2000/svg">
<rect width="100" height="100" fill="white"/>
<path d="M32.1136 28.2727V37H31.0568V28.2727H32.1136ZM36.7553 37.1364C36.1417 37.1364 35.6133 36.9915 35.1701 36.7017C34.7269 36.4119 34.386 36.0128 34.1474 35.5043C33.9087 34.9957 33.7894 34.4148 33.7894 33.7614C33.7894 33.0966 33.9116 32.5099 34.1559 32.0014C34.4031 31.4901 34.7468 31.0909 35.1871 30.804C35.6303 30.5142 36.1474 30.3693 36.7383 30.3693C37.1985 30.3693 37.6133 30.4545 37.9826 30.625C38.3519 30.7955 38.6545 31.0341 38.8903 31.3409C39.1261 31.6477 39.2724 32.0057 39.3292 32.4148H38.3235C38.2468 32.1165 38.0763 31.8523 37.8121 31.6222C37.5508 31.3892 37.1985 31.2727 36.7553 31.2727C36.3633 31.2727 36.0195 31.375 35.7241 31.5795C35.4315 31.7812 35.2028 32.0668 35.038 32.4361C34.8761 32.8026 34.7951 33.233 34.7951 33.7273C34.7951 34.233 34.8746 34.6733 35.0337 35.0483C35.1957 35.4233 35.4229 35.7145 35.7156 35.9219C36.011 36.1293 36.3576 36.233 36.7553 36.233C37.0167 36.233 37.2539 36.1875 37.467 36.0966C37.68 36.0057 37.8604 35.875 38.0082 35.7045C38.1559 35.5341 38.261 35.3295 38.3235 35.0909H39.3292C39.2724 35.4773 39.1317 35.8253 38.9073 36.1349C38.6857 36.4418 38.3917 36.6861 38.0252 36.8679C37.6616 37.0469 37.2383 37.1364 36.7553 37.1364ZM43.4585 37.1364C42.8675 37.1364 42.3491 36.9957 41.9031 36.7145C41.4599 36.4332 41.1133 36.0398 40.8633 35.5341C40.6161 35.0284 40.4925 34.4375 40.4925 33.7614C40.4925 33.0795 40.6161 32.4844 40.8633 31.9759C41.1133 31.4673 41.4599 31.0724 41.9031 30.7912C42.3491 30.5099 42.8675 30.3693 43.4585 30.3693C44.0494 30.3693 44.5664 30.5099 45.0096 30.7912C45.4556 31.0724 45.8022 31.4673 46.0494 31.9759C46.2994 32.4844 46.4244 33.0795 46.4244 33.7614C46.4244 34.4375 46.2994 35.0284 46.0494 35.5341C45.8022 36.0398 45.4556 36.4332 45.0096 36.7145C44.5664 36.9957 44.0494 37.1364 43.4585 37.1364ZM43.4585 36.233C43.9073 36.233 44.2766 36.1179 44.5664 35.8878C44.8562 35.6577 45.0707 35.3551 45.2099 34.9801C45.3491 34.6051 45.4187 34.1989 45.4187 33.7614C45.4187 33.3239 45.3491 32.9162 45.2099 32.5384C45.0707 32.1605 44.8562 31.8551 44.5664 31.6222C44.2766 31.3892 43.9073 31.2727 43.4585 31.2727C43.0096 31.2727 42.6403 31.3892 42.3505 31.6222C42.0607 31.8551 41.8462 32.1605 41.707 32.5384C41.5678 32.9162 41.4982 33.3239 41.4982 33.7614C41.4982 34.1989 41.5678 34.6051 41.707 34.9801C41.8462 35.3551 42.0607 35.6577 42.3505 35.8878C42.6403 36.1179 43.0096 36.233 43.4585 36.233ZM48.9652 33.0625V37H47.9595V30.4545H48.9311V31.4773H49.0163C49.1697 31.1449 49.4027 30.8778 49.7152 30.6761C50.0277 30.4716 50.4311 30.3693 50.9254 30.3693C51.3686 30.3693 51.7564 30.4602 52.0888 30.642C52.4212 30.821 52.6797 31.0938 52.8643 31.4602C53.049 31.8239 53.1413 32.2841 53.1413 32.8409V37H52.1357V32.9091C52.1357 32.3949 52.0021 31.9943 51.7351 31.7074C51.468 31.4176 51.1016 31.2727 50.6357 31.2727C50.3146 31.2727 50.0277 31.3423 49.7749 31.4815C49.5249 31.6207 49.3274 31.8239 49.1825 32.0909C49.0376 32.358 48.9652 32.6818 48.9652 33.0625ZM38.0795 46H37.0227C36.9602 45.696 36.8509 45.429 36.6946 45.1989C36.5412 44.9688 36.3537 44.7756 36.1321 44.6193C35.9134 44.4602 35.6705 44.3409 35.4034 44.2614C35.1364 44.1818 34.858 44.142 34.5682 44.142C34.0398 44.142 33.5611 44.2756 33.1321 44.5426C32.706 44.8097 32.3665 45.2031 32.1136 45.723C31.8636 46.2429 31.7386 46.8807 31.7386 47.6364C31.7386 48.392 31.8636 49.0298 32.1136 49.5497C32.3665 50.0696 32.706 50.4631 33.1321 50.7301C33.5611 50.9972 34.0398 51.1307 34.5682 51.1307C34.858 51.1307 35.1364 51.0909 35.4034 51.0114C35.6705 50.9318 35.9134 50.8139 36.1321 50.6577C36.3537 50.4986 36.5412 50.304 36.6946 50.0739C36.8509 49.8409 36.9602 49.5739 37.0227 49.2727H38.0795C38 49.7187 37.8551 50.1179 37.6449 50.4702C37.4347 50.8224 37.1733 51.1222 36.8608 51.3693C36.5483 51.6136 36.1974 51.7997 35.8082 51.9276C35.4219 52.0554 35.0085 52.1193 34.5682 52.1193C33.8239 52.1193 33.1619 51.9375 32.5824 51.5739C32.0028 51.2102 31.5469 50.6932 31.2145 50.0227C30.8821 49.3523 30.7159 48.5568 30.7159 47.6364C30.7159 46.7159 30.8821 45.9205 31.2145 45.25C31.5469 44.5795 32.0028 44.0625 32.5824 43.6989C33.1619 43.3352 33.8239 43.1534 34.5682 43.1534C35.0085 43.1534 35.4219 43.2173 35.8082 43.3452C36.1974 43.473 36.5483 43.6605 36.8608 43.9077C37.1733 44.152 37.4347 44.4503 37.6449 44.8026C37.8551 45.152 38 45.5511 38.0795 46ZM42.31 52.1364C41.7191 52.1364 41.2006 51.9957 40.7546 51.7145C40.3114 51.4332 39.9648 51.0398 39.7148 50.5341C39.4677 50.0284 39.3441 49.4375 39.3441 48.7614C39.3441 48.0795 39.4677 47.4844 39.7148 46.9759C39.9648 46.4673 40.3114 46.0724 40.7546 45.7912C41.2006 45.5099 41.7191 45.3693 42.31 45.3693C42.9009 45.3693 43.418 45.5099 43.8612 45.7912C44.3072 46.0724 44.6538 46.4673 44.9009 46.9759C45.1509 47.4844 45.2759 48.0795 45.2759 48.7614C45.2759 49.4375 45.1509 50.0284 44.9009 50.5341C44.6538 51.0398 44.3072 51.4332 43.8612 51.7145C43.418 51.9957 42.9009 52.1364 42.31 52.1364ZM42.31 51.233C42.7589 51.233 43.1282 51.1179 43.418 50.8878C43.7077 50.6577 43.9222 50.3551 44.0614 49.9801C44.2006 49.6051 44.2702 49.1989 44.2702 48.7614C44.2702 48.3239 44.2006 47.9162 44.0614 47.5384C43.9222 47.1605 43.7077 46.8551 43.418 46.6222C43.1282 46.3892 42.7589 46.2727 42.31 46.2727C41.8612 46.2727 41.4918 46.3892 41.2021 46.6222C40.9123 46.8551 40.6978 47.1605 40.5586 47.5384C40.4194 47.9162 40.3498 48.3239 40.3498 48.7614C40.3498 49.1989 40.4194 49.6051 40.5586 49.9801C40.6978 50.3551 40.9123 50.6577 41.2021 50.8878C41.4918 51.1179 41.8612 51.233 42.31 51.233ZM46.8111 52V45.4545H47.7827V46.4773H47.8679C48.0043 46.1278 48.2244 45.8565 48.5284 45.6634C48.8324 45.4673 49.1974 45.3693 49.6236 45.3693C50.0554 45.3693 50.4148 45.4673 50.7017 45.6634C50.9915 45.8565 51.2173 46.1278 51.3793 46.4773H51.4474C51.6151 46.1392 51.8665 45.8707 52.2017 45.6719C52.5369 45.4702 52.9389 45.3693 53.4077 45.3693C53.9929 45.3693 54.4716 45.5526 54.8438 45.919C55.2159 46.2827 55.402 46.8494 55.402 47.6193V52H54.3963V47.6193C54.3963 47.1364 54.2642 46.7912 54 46.5838C53.7358 46.3764 53.4247 46.2727 53.0668 46.2727C52.6065 46.2727 52.25 46.4119 51.9972 46.6903C51.7443 46.9659 51.6179 47.3153 51.6179 47.7386V52H50.5952V47.517C50.5952 47.1449 50.4744 46.8452 50.233 46.6179C49.9915 46.3878 49.6804 46.2727 49.2997 46.2727C49.0384 46.2727 48.794 46.3423 48.5668 46.4815C48.3423 46.6207 48.1605 46.8139 48.0213 47.0611C47.8849 47.3054 47.8168 47.5881 47.8168 47.9091V52H46.8111ZM57.2408 52V45.4545H58.2464V52H57.2408ZM57.7521 44.3636C57.5561 44.3636 57.3871 44.2969 57.245 44.1634C57.1058 44.0298 57.0362 43.8693 57.0362 43.6818C57.0362 43.4943 57.1058 43.3338 57.245 43.2003C57.3871 43.0668 57.5561 43 57.7521 43C57.9482 43 58.1158 43.0668 58.255 43.2003C58.397 43.3338 58.468 43.4943 58.468 43.6818C58.468 43.8693 58.397 44.0298 58.255 44.1634C58.1158 44.2969 57.9482 44.3636 57.7521 44.3636ZM61.0941 48.0625V52H60.0884V45.4545H61.06V46.4773H61.1452C61.2987 46.1449 61.5316 45.8778 61.8441 45.6761C62.1566 45.4716 62.56 45.3693 63.0543 45.3693C63.4975 45.3693 63.8853 45.4602 64.2177 45.642C64.5501 45.821 64.8086 46.0938 64.9933 46.4602C65.1779 46.8239 65.2702 47.2841 65.2702 47.8409V52H64.2646V47.9091C64.2646 47.3949 64.131 46.9943 63.864 46.7074C63.5969 46.4176 63.2305 46.2727 62.7646 46.2727C62.4435 46.2727 62.1566 46.3423 61.9038 46.4815C61.6538 46.6207 61.4563 46.8239 61.3114 47.0909C61.1665 47.358 61.0941 47.6818 61.0941 48.0625ZM69.75 54.5909C69.2642 54.5909 68.8466 54.5284 68.4972 54.4034C68.1477 54.2812 67.8565 54.1193 67.6236 53.9176C67.3935 53.7188 67.2102 53.5057 67.0739 53.2784L67.875 52.7159C67.9659 52.8352 68.081 52.9716 68.2202 53.125C68.3594 53.2812 68.5497 53.4162 68.7912 53.5298C69.0355 53.6463 69.3551 53.7045 69.75 53.7045C70.2784 53.7045 70.7145 53.5767 71.0582 53.321C71.402 53.0653 71.5739 52.6648 71.5739 52.1193V50.7898H71.4886C71.4148 50.9091 71.3097 51.0568 71.1733 51.233C71.0398 51.4062 70.8466 51.5611 70.5938 51.6974C70.3438 51.831 70.0057 51.8977 69.5795 51.8977C69.0511 51.8977 68.5767 51.7727 68.1562 51.5227C67.7386 51.2727 67.4077 50.9091 67.1634 50.4318C66.9219 49.9545 66.8011 49.375 66.8011 48.6932C66.8011 48.0227 66.919 47.4389 67.1548 46.9418C67.3906 46.4418 67.7188 46.0554 68.1392 45.7827C68.5597 45.5071 69.0455 45.3693 69.5966 45.3693C70.0227 45.3693 70.3608 45.4403 70.6108 45.5824C70.8636 45.7216 71.0568 45.8807 71.1903 46.0597C71.3267 46.2358 71.4318 46.3807 71.5057 46.4943H71.608V45.4545H72.5795V52.1875C72.5795 52.75 72.4517 53.2074 72.196 53.5597C71.9432 53.9148 71.6023 54.1747 71.1733 54.3395C70.7472 54.5071 70.2727 54.5909 69.75 54.5909ZM69.7159 50.9943C70.1193 50.9943 70.4602 50.902 70.7386 50.7173C71.017 50.5327 71.2287 50.267 71.3736 49.9205C71.5185 49.5739 71.5909 49.1591 71.5909 48.6761C71.5909 48.2045 71.5199 47.7884 71.3778 47.4276C71.2358 47.0668 71.0256 46.7841 70.7472 46.5795C70.4688 46.375 70.125 46.2727 69.7159 46.2727C69.2898 46.2727 68.9347 46.3807 68.6506 46.5966C68.3693 46.8125 68.1577 47.1023 68.0156 47.4659C67.8764 47.8295 67.8068 48.233 67.8068 48.6761C67.8068 49.1307 67.8778 49.5327 68.0199 49.8821C68.1648 50.2287 68.3778 50.5014 68.6591 50.7003C68.9432 50.8963 69.2955 50.9943 69.7159 50.9943ZM35.8295 60.4545C35.7784 60.0227 35.571 59.6875 35.2074 59.4489C34.8438 59.2102 34.3977 59.0909 33.8693 59.0909C33.483 59.0909 33.1449 59.1534 32.8551 59.2784C32.5682 59.4034 32.3438 59.5753 32.1818 59.794C32.0227 60.0128 31.9432 60.2614 31.9432 60.5398C31.9432 60.7727 31.9986 60.973 32.1094 61.1406C32.223 61.3054 32.3679 61.4432 32.544 61.554C32.7202 61.6619 32.9048 61.7514 33.098 61.8224C33.2912 61.8906 33.4688 61.946 33.6307 61.9886L34.517 62.2273C34.7443 62.2869 34.9972 62.3693 35.2756 62.4744C35.5568 62.5795 35.8253 62.723 36.081 62.9048C36.3395 63.0838 36.5526 63.3139 36.7202 63.5952C36.8878 63.8764 36.9716 64.2216 36.9716 64.6307C36.9716 65.1023 36.848 65.5284 36.6009 65.9091C36.3565 66.2898 35.9986 66.5923 35.527 66.8168C35.0582 67.0412 34.4886 67.1534 33.8182 67.1534C33.1932 67.1534 32.652 67.0526 32.1946 66.8509C31.7401 66.6491 31.3821 66.3679 31.1207 66.0071C30.8622 65.6463 30.7159 65.2273 30.6818 64.75H31.7727C31.8011 65.0795 31.9119 65.3523 32.1051 65.5682C32.3011 65.7812 32.5483 65.9403 32.8466 66.0455C33.1477 66.1477 33.4716 66.1989 33.8182 66.1989C34.2216 66.1989 34.5838 66.1335 34.9048 66.0028C35.2259 65.8693 35.4801 65.6847 35.6676 65.4489C35.8551 65.2102 35.9489 64.9318 35.9489 64.6136C35.9489 64.3239 35.8679 64.0881 35.706 63.9062C35.544 63.7244 35.331 63.5767 35.0668 63.4631C34.8026 63.3494 34.517 63.25 34.2102 63.1648L33.1364 62.858C32.4545 62.6619 31.9148 62.3821 31.517 62.0185C31.1193 61.6548 30.9205 61.179 30.9205 60.5909C30.9205 60.1023 31.0526 59.6761 31.3168 59.3125C31.5838 58.946 31.9418 58.6619 32.3906 58.4602C32.8423 58.2557 33.3466 58.1534 33.9034 58.1534C34.4659 58.1534 34.9659 58.2543 35.4034 58.456C35.8409 58.6548 36.1875 58.9276 36.4432 59.2741C36.7017 59.6207 36.8381 60.0142 36.8523 60.4545H35.8295ZM41.2319 67.1364C40.641 67.1364 40.1225 66.9957 39.6765 66.7145C39.2333 66.4332 38.8867 66.0398 38.6367 65.5341C38.3896 65.0284 38.266 64.4375 38.266 63.7614C38.266 63.0795 38.3896 62.4844 38.6367 61.9759C38.8867 61.4673 39.2333 61.0724 39.6765 60.7912C40.1225 60.5099 40.641 60.3693 41.2319 60.3693C41.8228 60.3693 42.3398 60.5099 42.783 60.7912C43.229 61.0724 43.5756 61.4673 43.8228 61.9759C44.0728 62.4844 44.1978 63.0795 44.1978 63.7614C44.1978 64.4375 44.0728 65.0284 43.8228 65.5341C43.5756 66.0398 43.229 66.4332 42.783 66.7145C42.3398 66.9957 41.8228 67.1364 41.2319 67.1364ZM41.2319 66.233C41.6808 66.233 42.0501 66.1179 42.3398 65.8878C42.6296 65.6577 42.8441 65.3551 42.9833 64.9801C43.1225 64.6051 43.1921 64.1989 43.1921 63.7614C43.1921 63.3239 43.1225 62.9162 42.9833 62.5384C42.8441 62.1605 42.6296 61.8551 42.3398 61.6222C42.0501 61.3892 41.6808 61.2727 41.2319 61.2727C40.783 61.2727 40.4137 61.3892 40.1239 61.6222C39.8342 61.8551 39.6197 62.1605 39.4805 62.5384C39.3413 62.9162 39.2717 63.3239 39.2717 63.7614C39.2717 64.1989 39.3413 64.6051 39.4805 64.9801C39.6197 65.3551 39.8342 65.6577 40.1239 65.8878C40.4137 66.1179 40.783 66.233 41.2319 66.233ZM48.392 67.1364C47.8011 67.1364 47.2827 66.9957 46.8366 66.7145C46.3935 66.4332 46.0469 66.0398 45.7969 65.5341C45.5497 65.0284 45.4261 64.4375 45.4261 63.7614C45.4261 63.0795 45.5497 62.4844 45.7969 61.9759C46.0469 61.4673 46.3935 61.0724 46.8366 60.7912C47.2827 60.5099 47.8011 60.3693 48.392 60.3693C48.983 60.3693 49.5 60.5099 49.9432 60.7912C50.3892 61.0724 50.7358 61.4673 50.983 61.9759C51.233 62.4844 51.358 63.0795 51.358 63.7614C51.358 64.4375 51.233 65.0284 50.983 65.5341C50.7358 66.0398 50.3892 66.4332 49.9432 66.7145C49.5 66.9957 48.983 67.1364 48.392 67.1364ZM48.392 66.233C48.8409 66.233 49.2102 66.1179 49.5 65.8878C49.7898 65.6577 50.0043 65.3551 50.1435 64.9801C50.2827 64.6051 50.3523 64.1989 50.3523 63.7614C50.3523 63.3239 50.2827 62.9162 50.1435 62.5384C50.0043 62.1605 49.7898 61.8551 49.5 61.6222C49.2102 61.3892 48.8409 61.2727 48.392 61.2727C47.9432 61.2727 47.5739 61.3892 47.2841 61.6222C46.9943 61.8551 46.7798 62.1605 46.6406 62.5384C46.5014 62.9162 46.4318 63.3239 46.4318 63.7614C46.4318 64.1989 46.5014 64.6051 46.6406 64.9801C46.7798 65.3551 46.9943 65.6577 47.2841 65.8878C47.5739 66.1179 47.9432 66.233 48.392 66.233ZM53.8988 63.0625V67H52.8931V60.4545H53.8647V61.4773H53.9499C54.1033 61.1449 54.3363 60.8778 54.6488 60.6761C54.9613 60.4716 55.3647 60.3693 55.859 60.3693C56.3022 60.3693 56.69 60.4602 57.0224 60.642C57.3548 60.821 57.6133 61.0938 57.7979 61.4602C57.9826 61.8239 58.0749 62.2841 58.0749 62.8409V67H57.0692V62.9091C57.0692 62.3949 56.9357 61.9943 56.6687 61.7074C56.4016 61.4176 56.0352 61.2727 55.5692 61.2727C55.2482 61.2727 54.9613 61.3423 54.7085 61.4815C54.4585 61.6207 54.261 61.8239 54.1161 62.0909C53.9712 62.358 53.8988 62.6818 53.8988 63.0625Z" fill="black"/>
</svg>
