<svg width="100" height="100" viewBox="0 0 100 100" fill="none" xmlns="http://www.w3.org/2000/svg">
<rect width="100" height="100" rx="50" fill="#83FFF8"/>
<path d="M31.1136 30.2727V39H30.0568V30.2727H31.1136ZM35.7553 39.1364C35.1417 39.1364 34.6133 38.9915 34.1701 38.7017C33.7269 38.4119 33.386 38.0128 33.1474 37.5043C32.9087 36.9957 32.7894 36.4148 32.7894 35.7614C32.7894 35.0966 32.9116 34.5099 33.1559 34.0014C33.4031 33.4901 33.7468 33.0909 34.1871 32.804C34.6303 32.5142 35.1474 32.3693 35.7383 32.3693C36.1985 32.3693 36.6133 32.4545 36.9826 32.625C37.3519 32.7955 37.6545 33.0341 37.8903 33.3409C38.1261 33.6477 38.2724 34.0057 38.3292 34.4148H37.3235C37.2468 34.1165 37.0763 33.8523 36.8121 33.6222C36.5508 33.3892 36.1985 33.2727 35.7553 33.2727C35.3633 33.2727 35.0195 33.375 34.7241 33.5795C34.4315 33.7812 34.2028 34.0668 34.038 34.4361C33.8761 34.8026 33.7951 35.233 33.7951 35.7273C33.7951 36.233 33.8746 36.6733 34.0337 37.0483C34.1957 37.4233 34.4229 37.7145 34.7156 37.9219C35.011 38.1293 35.3576 38.233 35.7553 38.233C36.0167 38.233 36.2539 38.1875 36.467 38.0966C36.68 38.0057 36.8604 37.875 37.0082 37.7045C37.1559 37.5341 37.261 37.3295 37.3235 37.0909H38.3292C38.2724 37.4773 38.1317 37.8253 37.9073 38.1349C37.6857 38.4418 37.3917 38.6861 37.0252 38.8679C36.6616 39.0469 36.2383 39.1364 35.7553 39.1364ZM42.4585 39.1364C41.8675 39.1364 41.3491 38.9957 40.9031 38.7145C40.4599 38.4332 40.1133 38.0398 39.8633 37.5341C39.6161 37.0284 39.4925 36.4375 39.4925 35.7614C39.4925 35.0795 39.6161 34.4844 39.8633 33.9759C40.1133 33.4673 40.4599 33.0724 40.9031 32.7912C41.3491 32.5099 41.8675 32.3693 42.4585 32.3693C43.0494 32.3693 43.5664 32.5099 44.0096 32.7912C44.4556 33.0724 44.8022 33.4673 45.0494 33.9759C45.2994 34.4844 45.4244 35.0795 45.4244 35.7614C45.4244 36.4375 45.2994 37.0284 45.0494 37.5341C44.8022 38.0398 44.4556 38.4332 44.0096 38.7145C43.5664 38.9957 43.0494 39.1364 42.4585 39.1364ZM42.4585 38.233C42.9073 38.233 43.2766 38.1179 43.5664 37.8878C43.8562 37.6577 44.0707 37.3551 44.2099 36.9801C44.3491 36.6051 44.4187 36.1989 44.4187 35.7614C44.4187 35.3239 44.3491 34.9162 44.2099 34.5384C44.0707 34.1605 43.8562 33.8551 43.5664 33.6222C43.2766 33.3892 42.9073 33.2727 42.4585 33.2727C42.0096 33.2727 41.6403 33.3892 41.3505 33.6222C41.0607 33.8551 40.8462 34.1605 40.707 34.5384C40.5678 34.9162 40.4982 35.3239 40.4982 35.7614C40.4982 36.1989 40.5678 36.6051 40.707 36.9801C40.8462 37.3551 41.0607 37.6577 41.3505 37.8878C41.6403 38.1179 42.0096 38.233 42.4585 38.233ZM47.9652 35.0625V39H46.9595V32.4545H47.9311V33.4773H48.0163C48.1697 33.1449 48.4027 32.8778 48.7152 32.6761C49.0277 32.4716 49.4311 32.3693 49.9254 32.3693C50.3686 32.3693 50.7564 32.4602 51.0888 32.642C51.4212 32.821 51.6797 33.0938 51.8643 33.4602C52.049 33.8239 52.1413 34.2841 52.1413 34.8409V39H51.1357V34.9091C51.1357 34.3949 51.0021 33.9943 50.7351 33.7074C50.468 33.4176 50.1016 33.2727 49.6357 33.2727C49.3146 33.2727 49.0277 33.3423 48.7749 33.4815C48.5249 33.6207 48.3274 33.8239 48.1825 34.0909C48.0376 34.358 47.9652 34.6818 47.9652 35.0625ZM37.0795 48H36.0227C35.9602 47.696 35.8509 47.429 35.6946 47.1989C35.5412 46.9688 35.3537 46.7756 35.1321 46.6193C34.9134 46.4602 34.6705 46.3409 34.4034 46.2614C34.1364 46.1818 33.858 46.142 33.5682 46.142C33.0398 46.142 32.5611 46.2756 32.1321 46.5426C31.706 46.8097 31.3665 47.2031 31.1136 47.723C30.8636 48.2429 30.7386 48.8807 30.7386 49.6364C30.7386 50.392 30.8636 51.0298 31.1136 51.5497C31.3665 52.0696 31.706 52.4631 32.1321 52.7301C32.5611 52.9972 33.0398 53.1307 33.5682 53.1307C33.858 53.1307 34.1364 53.0909 34.4034 53.0114C34.6705 52.9318 34.9134 52.8139 35.1321 52.6577C35.3537 52.4986 35.5412 52.304 35.6946 52.0739C35.8509 51.8409 35.9602 51.5739 36.0227 51.2727H37.0795C37 51.7187 36.8551 52.1179 36.6449 52.4702C36.4347 52.8224 36.1733 53.1222 35.8608 53.3693C35.5483 53.6136 35.1974 53.7997 34.8082 53.9276C34.4219 54.0554 34.0085 54.1193 33.5682 54.1193C32.8239 54.1193 32.1619 53.9375 31.5824 53.5739C31.0028 53.2102 30.5469 52.6932 30.2145 52.0227C29.8821 51.3523 29.7159 50.5568 29.7159 49.6364C29.7159 48.7159 29.8821 47.9205 30.2145 47.25C30.5469 46.5795 31.0028 46.0625 31.5824 45.6989C32.1619 45.3352 32.8239 45.1534 33.5682 45.1534C34.0085 45.1534 34.4219 45.2173 34.8082 45.3452C35.1974 45.473 35.5483 45.6605 35.8608 45.9077C36.1733 46.152 36.4347 46.4503 36.6449 46.8026C36.8551 47.152 37 47.5511 37.0795 48ZM41.31 54.1364C40.7191 54.1364 40.2006 53.9957 39.7546 53.7145C39.3114 53.4332 38.9648 53.0398 38.7148 52.5341C38.4677 52.0284 38.3441 51.4375 38.3441 50.7614C38.3441 50.0795 38.4677 49.4844 38.7148 48.9759C38.9648 48.4673 39.3114 48.0724 39.7546 47.7912C40.2006 47.5099 40.7191 47.3693 41.31 47.3693C41.9009 47.3693 42.418 47.5099 42.8612 47.7912C43.3072 48.0724 43.6538 48.4673 43.9009 48.9759C44.1509 49.4844 44.2759 50.0795 44.2759 50.7614C44.2759 51.4375 44.1509 52.0284 43.9009 52.5341C43.6538 53.0398 43.3072 53.4332 42.8612 53.7145C42.418 53.9957 41.9009 54.1364 41.31 54.1364ZM41.31 53.233C41.7589 53.233 42.1282 53.1179 42.418 52.8878C42.7077 52.6577 42.9222 52.3551 43.0614 51.9801C43.2006 51.6051 43.2702 51.1989 43.2702 50.7614C43.2702 50.3239 43.2006 49.9162 43.0614 49.5384C42.9222 49.1605 42.7077 48.8551 42.418 48.6222C42.1282 48.3892 41.7589 48.2727 41.31 48.2727C40.8612 48.2727 40.4918 48.3892 40.2021 48.6222C39.9123 48.8551 39.6978 49.1605 39.5586 49.5384C39.4194 49.9162 39.3498 50.3239 39.3498 50.7614C39.3498 51.1989 39.4194 51.6051 39.5586 51.9801C39.6978 52.3551 39.9123 52.6577 40.2021 52.8878C40.4918 53.1179 40.8612 53.233 41.31 53.233ZM45.8111 54V47.4545H46.7827V48.4773H46.8679C47.0043 48.1278 47.2244 47.8565 47.5284 47.6634C47.8324 47.4673 48.1974 47.3693 48.6236 47.3693C49.0554 47.3693 49.4148 47.4673 49.7017 47.6634C49.9915 47.8565 50.2173 48.1278 50.3793 48.4773H50.4474C50.6151 48.1392 50.8665 47.8707 51.2017 47.6719C51.5369 47.4702 51.9389 47.3693 52.4077 47.3693C52.9929 47.3693 53.4716 47.5526 53.8438 47.919C54.2159 48.2827 54.402 48.8494 54.402 49.6193V54H53.3963V49.6193C53.3963 49.1364 53.2642 48.7912 53 48.5838C52.7358 48.3764 52.4247 48.2727 52.0668 48.2727C51.6065 48.2727 51.25 48.4119 50.9972 48.6903C50.7443 48.9659 50.6179 49.3153 50.6179 49.7386V54H49.5952V49.517C49.5952 49.1449 49.4744 48.8452 49.233 48.6179C48.9915 48.3878 48.6804 48.2727 48.2997 48.2727C48.0384 48.2727 47.794 48.3423 47.5668 48.4815C47.3423 48.6207 47.1605 48.8139 47.0213 49.0611C46.8849 49.3054 46.8168 49.5881 46.8168 49.9091V54H45.8111ZM56.2408 54V47.4545H57.2464V54H56.2408ZM56.7521 46.3636C56.5561 46.3636 56.3871 46.2969 56.245 46.1634C56.1058 46.0298 56.0362 45.8693 56.0362 45.6818C56.0362 45.4943 56.1058 45.3338 56.245 45.2003C56.3871 45.0668 56.5561 45 56.7521 45C56.9482 45 57.1158 45.0668 57.255 45.2003C57.397 45.3338 57.468 45.4943 57.468 45.6818C57.468 45.8693 57.397 46.0298 57.255 46.1634C57.1158 46.2969 56.9482 46.3636 56.7521 46.3636ZM60.0941 50.0625V54H59.0884V47.4545H60.06V48.4773H60.1452C60.2987 48.1449 60.5316 47.8778 60.8441 47.6761C61.1566 47.4716 61.56 47.3693 62.0543 47.3693C62.4975 47.3693 62.8853 47.4602 63.2177 47.642C63.5501 47.821 63.8086 48.0938 63.9933 48.4602C64.1779 48.8239 64.2702 49.2841 64.2702 49.8409V54H63.2646V49.9091C63.2646 49.3949 63.131 48.9943 62.864 48.7074C62.5969 48.4176 62.2305 48.2727 61.7646 48.2727C61.4435 48.2727 61.1566 48.3423 60.9038 48.4815C60.6538 48.6207 60.4563 48.8239 60.3114 49.0909C60.1665 49.358 60.0941 49.6818 60.0941 50.0625ZM68.75 56.5909C68.2642 56.5909 67.8466 56.5284 67.4972 56.4034C67.1477 56.2812 66.8565 56.1193 66.6236 55.9176C66.3935 55.7188 66.2102 55.5057 66.0739 55.2784L66.875 54.7159C66.9659 54.8352 67.081 54.9716 67.2202 55.125C67.3594 55.2812 67.5497 55.4162 67.7912 55.5298C68.0355 55.6463 68.3551 55.7045 68.75 55.7045C69.2784 55.7045 69.7145 55.5767 70.0582 55.321C70.402 55.0653 70.5739 54.6648 70.5739 54.1193V52.7898H70.4886C70.4148 52.9091 70.3097 53.0568 70.1733 53.233C70.0398 53.4062 69.8466 53.5611 69.5938 53.6974C69.3438 53.831 69.0057 53.8977 68.5795 53.8977C68.0511 53.8977 67.5767 53.7727 67.1562 53.5227C66.7386 53.2727 66.4077 52.9091 66.1634 52.4318C65.9219 51.9545 65.8011 51.375 65.8011 50.6932C65.8011 50.0227 65.919 49.4389 66.1548 48.9418C66.3906 48.4418 66.7188 48.0554 67.1392 47.7827C67.5597 47.5071 68.0455 47.3693 68.5966 47.3693C69.0227 47.3693 69.3608 47.4403 69.6108 47.5824C69.8636 47.7216 70.0568 47.8807 70.1903 48.0597C70.3267 48.2358 70.4318 48.3807 70.5057 48.4943H70.608V47.4545H71.5795V54.1875C71.5795 54.75 71.4517 55.2074 71.196 55.5597C70.9432 55.9148 70.6023 56.1747 70.1733 56.3395C69.7472 56.5071 69.2727 56.5909 68.75 56.5909ZM68.7159 52.9943C69.1193 52.9943 69.4602 52.902 69.7386 52.7173C70.017 52.5327 70.2287 52.267 70.3736 51.9205C70.5185 51.5739 70.5909 51.1591 70.5909 50.6761C70.5909 50.2045 70.5199 49.7884 70.3778 49.4276C70.2358 49.0668 70.0256 48.7841 69.7472 48.5795C69.4688 48.375 69.125 48.2727 68.7159 48.2727C68.2898 48.2727 67.9347 48.3807 67.6506 48.5966C67.3693 48.8125 67.1577 49.1023 67.0156 49.4659C66.8764 49.8295 66.8068 50.233 66.8068 50.6761C66.8068 51.1307 66.8778 51.5327 67.0199 51.8821C67.1648 52.2287 67.3778 52.5014 67.6591 52.7003C67.9432 52.8963 68.2955 52.9943 68.7159 52.9943ZM34.8295 62.4545C34.7784 62.0227 34.571 61.6875 34.2074 61.4489C33.8438 61.2102 33.3977 61.0909 32.8693 61.0909C32.483 61.0909 32.1449 61.1534 31.8551 61.2784C31.5682 61.4034 31.3438 61.5753 31.1818 61.794C31.0227 62.0128 30.9432 62.2614 30.9432 62.5398C30.9432 62.7727 30.9986 62.973 31.1094 63.1406C31.223 63.3054 31.3679 63.4432 31.544 63.554C31.7202 63.6619 31.9048 63.7514 32.098 63.8224C32.2912 63.8906 32.4688 63.946 32.6307 63.9886L33.517 64.2273C33.7443 64.2869 33.9972 64.3693 34.2756 64.4744C34.5568 64.5795 34.8253 64.723 35.081 64.9048C35.3395 65.0838 35.5526 65.3139 35.7202 65.5952C35.8878 65.8764 35.9716 66.2216 35.9716 66.6307C35.9716 67.1023 35.848 67.5284 35.6009 67.9091C35.3565 68.2898 34.9986 68.5923 34.527 68.8168C34.0582 69.0412 33.4886 69.1534 32.8182 69.1534C32.1932 69.1534 31.652 69.0526 31.1946 68.8509C30.7401 68.6491 30.3821 68.3679 30.1207 68.0071C29.8622 67.6463 29.7159 67.2273 29.6818 66.75H30.7727C30.8011 67.0795 30.9119 67.3523 31.1051 67.5682C31.3011 67.7812 31.5483 67.9403 31.8466 68.0455C32.1477 68.1477 32.4716 68.1989 32.8182 68.1989C33.2216 68.1989 33.5838 68.1335 33.9048 68.0028C34.2259 67.8693 34.4801 67.6847 34.6676 67.4489C34.8551 67.2102 34.9489 66.9318 34.9489 66.6136C34.9489 66.3239 34.8679 66.0881 34.706 65.9062C34.544 65.7244 34.331 65.5767 34.0668 65.4631C33.8026 65.3494 33.517 65.25 33.2102 65.1648L32.1364 64.858C31.4545 64.6619 30.9148 64.3821 30.517 64.0185C30.1193 63.6548 29.9205 63.179 29.9205 62.5909C29.9205 62.1023 30.0526 61.6761 30.3168 61.3125C30.5838 60.946 30.9418 60.6619 31.3906 60.4602C31.8423 60.2557 32.3466 60.1534 32.9034 60.1534C33.4659 60.1534 33.9659 60.2543 34.4034 60.456C34.8409 60.6548 35.1875 60.9276 35.4432 61.2741C35.7017 61.6207 35.8381 62.0142 35.8523 62.4545H34.8295ZM40.2319 69.1364C39.641 69.1364 39.1225 68.9957 38.6765 68.7145C38.2333 68.4332 37.8867 68.0398 37.6367 67.5341C37.3896 67.0284 37.266 66.4375 37.266 65.7614C37.266 65.0795 37.3896 64.4844 37.6367 63.9759C37.8867 63.4673 38.2333 63.0724 38.6765 62.7912C39.1225 62.5099 39.641 62.3693 40.2319 62.3693C40.8228 62.3693 41.3398 62.5099 41.783 62.7912C42.229 63.0724 42.5756 63.4673 42.8228 63.9759C43.0728 64.4844 43.1978 65.0795 43.1978 65.7614C43.1978 66.4375 43.0728 67.0284 42.8228 67.5341C42.5756 68.0398 42.229 68.4332 41.783 68.7145C41.3398 68.9957 40.8228 69.1364 40.2319 69.1364ZM40.2319 68.233C40.6808 68.233 41.0501 68.1179 41.3398 67.8878C41.6296 67.6577 41.8441 67.3551 41.9833 66.9801C42.1225 66.6051 42.1921 66.1989 42.1921 65.7614C42.1921 65.3239 42.1225 64.9162 41.9833 64.5384C41.8441 64.1605 41.6296 63.8551 41.3398 63.6222C41.0501 63.3892 40.6808 63.2727 40.2319 63.2727C39.783 63.2727 39.4137 63.3892 39.1239 63.6222C38.8342 63.8551 38.6197 64.1605 38.4805 64.5384C38.3413 64.9162 38.2717 65.3239 38.2717 65.7614C38.2717 66.1989 38.3413 66.6051 38.4805 66.9801C38.6197 67.3551 38.8342 67.6577 39.1239 67.8878C39.4137 68.1179 39.783 68.233 40.2319 68.233ZM47.392 69.1364C46.8011 69.1364 46.2827 68.9957 45.8366 68.7145C45.3935 68.4332 45.0469 68.0398 44.7969 67.5341C44.5497 67.0284 44.4261 66.4375 44.4261 65.7614C44.4261 65.0795 44.5497 64.4844 44.7969 63.9759C45.0469 63.4673 45.3935 63.0724 45.8366 62.7912C46.2827 62.5099 46.8011 62.3693 47.392 62.3693C47.983 62.3693 48.5 62.5099 48.9432 62.7912C49.3892 63.0724 49.7358 63.4673 49.983 63.9759C50.233 64.4844 50.358 65.0795 50.358 65.7614C50.358 66.4375 50.233 67.0284 49.983 67.5341C49.7358 68.0398 49.3892 68.4332 48.9432 68.7145C48.5 68.9957 47.983 69.1364 47.392 69.1364ZM47.392 68.233C47.8409 68.233 48.2102 68.1179 48.5 67.8878C48.7898 67.6577 49.0043 67.3551 49.1435 66.9801C49.2827 66.6051 49.3523 66.1989 49.3523 65.7614C49.3523 65.3239 49.2827 64.9162 49.1435 64.5384C49.0043 64.1605 48.7898 63.8551 48.5 63.6222C48.2102 63.3892 47.8409 63.2727 47.392 63.2727C46.9432 63.2727 46.5739 63.3892 46.2841 63.6222C45.9943 63.8551 45.7798 64.1605 45.6406 64.5384C45.5014 64.9162 45.4318 65.3239 45.4318 65.7614C45.4318 66.1989 45.5014 66.6051 45.6406 66.9801C45.7798 67.3551 45.9943 67.6577 46.2841 67.8878C46.5739 68.1179 46.9432 68.233 47.392 68.233ZM52.8988 65.0625V69H51.8931V62.4545H52.8647V63.4773H52.9499C53.1033 63.1449 53.3363 62.8778 53.6488 62.6761C53.9613 62.4716 54.3647 62.3693 54.859 62.3693C55.3022 62.3693 55.69 62.4602 56.0224 62.642C56.3548 62.821 56.6133 63.0938 56.7979 63.4602C56.9826 63.8239 57.0749 64.2841 57.0749 64.8409V69H56.0692V64.9091C56.0692 64.3949 55.9357 63.9943 55.6687 63.7074C55.4016 63.4176 55.0352 63.2727 54.5692 63.2727C54.2482 63.2727 53.9613 63.3423 53.7085 63.4815C53.4585 63.6207 53.261 63.8239 53.1161 64.0909C52.9712 64.358 52.8988 64.6818 52.8988 65.0625Z" fill="black"/>
</svg>
