<svg width="134" height="53" viewBox="0 0 134 53" fill="none" xmlns="http://www.w3.org/2000/svg">
<g filter="url(#filter0_d_216_1006)">
<mask id="path-1-inside-1_216_1006" fill="white">
<path fill-rule="evenodd" clip-rule="evenodd" d="M45.7772 22.9386L24.5964 0.0848389L3.41553 22.9386L3.41553 22.9386L24.5964 45.7924L45.7772 22.9386Z"/>
</mask>
<path fill-rule="evenodd" clip-rule="evenodd" d="M45.7772 22.9386L24.5964 0.0848389L3.41553 22.9386L3.41553 22.9386L24.5964 45.7924L45.7772 22.9386Z" fill="white"/>
<path d="M24.5964 0.0848389L25.7727 -1.00533L24.5964 -2.27451L23.4201 -1.00533L24.5964 0.0848389ZM45.7772 22.9386L46.9535 24.0288L47.9639 22.9386L46.9535 21.8484L45.7772 22.9386ZM3.41553 22.9386L2.23925 21.8484L2.15438 21.94L2.0847 22.0436L3.41553 22.9386ZM3.41553 22.9386L2.0847 22.0436L1.37604 23.0974L2.23925 24.0288L3.41553 22.9386ZM24.5964 45.7924L23.4201 46.8826L24.5964 48.1517L25.7727 46.8826L24.5964 45.7924ZM23.4201 1.17501L44.601 24.0288L46.9535 21.8484L25.7727 -1.00533L23.4201 1.17501ZM4.5918 24.0288L25.7727 1.17501L23.4201 -1.00533L2.23925 21.8484L4.5918 24.0288ZM4.74635 23.8336L4.74635 23.8336L2.0847 22.0436L2.0847 22.0436L4.74635 23.8336ZM25.7727 44.7022L4.5918 21.8484L2.23925 24.0288L23.4201 46.8826L25.7727 44.7022ZM44.601 21.8484L23.4201 44.7022L25.7727 46.8826L46.9535 24.0288L44.601 21.8484Z" fill="#CCCCCC" mask="url(#path-1-inside-1_216_1006)"/>
<mask id="path-3-inside-2_216_1006" fill="white">
<path fill-rule="evenodd" clip-rule="evenodd" d="M130.639 22.9386L109.458 0.0848389L88.2769 22.9386L88.2769 22.9386L109.458 45.7924L130.639 22.9386Z"/>
</mask>
<path fill-rule="evenodd" clip-rule="evenodd" d="M130.639 22.9386L109.458 0.0848389L88.2769 22.9386L88.2769 22.9386L109.458 45.7924L130.639 22.9386Z" fill="white"/>
<path d="M109.458 0.0848389L110.634 -1.00533L109.458 -2.27451L108.281 -1.00533L109.458 0.0848389ZM130.639 22.9386L131.815 24.0288L132.825 22.9386L131.815 21.8484L130.639 22.9386ZM88.2769 22.9386L87.1006 21.8484L86.9655 21.9942L86.8701 22.1684L88.2769 22.9386ZM88.2769 22.9386L86.8701 22.1684L86.3154 23.1816L87.1006 24.0288L88.2769 22.9386ZM109.458 45.7924L108.281 46.8826L109.458 48.1517L110.634 46.8826L109.458 45.7924ZM108.281 1.17501L129.462 24.0288L131.815 21.8484L110.634 -1.00533L108.281 1.17501ZM89.4531 24.0288L110.634 1.17501L108.281 -1.00533L87.1006 21.8484L89.4531 24.0288ZM89.6836 23.7088L89.6836 23.7088L86.8701 22.1684L86.8701 22.1684L89.6836 23.7088ZM110.634 44.7022L89.4531 21.8484L87.1006 24.0288L108.281 46.8826L110.634 44.7022ZM129.462 21.8484L108.281 44.7022L110.634 46.8826L131.815 24.0288L129.462 21.8484Z" fill="#CCCCCC" mask="url(#path-3-inside-2_216_1006)"/>
<mask id="path-5-inside-3_216_1006" fill="white">
<path fill-rule="evenodd" clip-rule="evenodd" d="M88.2079 22.9386L67.027 0.0848389L45.8462 22.9386L45.8462 22.9386L67.0271 45.7924L88.2079 22.9386Z"/>
</mask>
<path fill-rule="evenodd" clip-rule="evenodd" d="M88.2079 22.9386L67.027 0.0848389L45.8462 22.9386L45.8462 22.9386L67.0271 45.7924L88.2079 22.9386Z" fill="white"/>
<path d="M67.027 0.0848389L68.2033 -1.00533L67.027 -2.27451L65.8508 -1.00533L67.027 0.0848389ZM88.2079 22.9386L89.3842 24.0288L90.3946 22.9386L89.3842 21.8484L88.2079 22.9386ZM45.8462 22.9386L44.6699 21.8484L44.4157 22.1228L44.309 22.4813L45.8462 22.9386ZM45.8462 22.9386L44.309 22.4813L44.0482 23.358L44.6699 24.0288L45.8462 22.9386ZM67.0271 45.7924L65.8508 46.8826L67.0271 48.1517L68.2033 46.8826L67.0271 45.7924ZM65.8508 1.17501L87.0316 24.0288L89.3842 21.8484L68.2033 -1.00533L65.8508 1.17501ZM47.0225 24.0288L68.2033 1.17501L65.8508 -1.00533L44.6699 21.8484L47.0225 24.0288ZM47.3834 23.3959L47.3834 23.3959L44.309 22.4813L44.309 22.4813L47.3834 23.3959ZM68.2033 44.7022L47.0225 21.8484L44.6699 24.0288L65.8508 46.8826L68.2033 44.7022ZM87.0316 21.8484L65.8508 44.7022L68.2033 46.8826L89.3842 24.0288L87.0316 21.8484Z" fill="#CCCCCC" mask="url(#path-5-inside-3_216_1006)"/>
</g>
<defs>
<filter id="filter0_d_216_1006" x="0.20798" y="0.0848389" width="133.638" height="52.1226" filterUnits="userSpaceOnUse" color-interpolation-filters="sRGB">
<feFlood flood-opacity="0" result="BackgroundImageFix"/>
<feColorMatrix in="SourceAlpha" type="matrix" values="0 0 0 0 0 0 0 0 0 0 0 0 0 0 0 0 0 0 127 0" result="hardAlpha"/>
<feOffset dy="3.20755"/>
<feGaussianBlur stdDeviation="1.60377"/>
<feComposite in2="hardAlpha" operator="out"/>
<feColorMatrix type="matrix" values="0 0 0 0 0 0 0 0 0 0 0 0 0 0 0 0 0 0 0.1 0"/>
<feBlend mode="normal" in2="BackgroundImageFix" result="effect1_dropShadow_216_1006"/>
<feBlend mode="normal" in="SourceGraphic" in2="effect1_dropShadow_216_1006" result="shape"/>
</filter>
</defs>
</svg>
