<svg width="40" height="40" viewBox="0 0 40 40" fill="none" xmlns="http://www.w3.org/2000/svg">
<path d="M19.7272 0.426758C8.83779 0.426758 0 9.26454 0 20.154C0 31.0434 8.83779 39.8812 19.7272 39.8812C30.6166 39.8812 39.4544 31.0434 39.4544 20.154C39.4544 9.26454 30.6166 0.426758 19.7272 0.426758V0.426758ZM26.8487 12.9338C28.9595 12.9338 30.6561 14.6303 30.6561 16.7412C30.6561 18.852 28.9595 20.5485 26.8487 20.5485C24.7379 20.5485 23.0414 18.852 23.0414 16.7412C23.0216 14.6303 24.7379 12.9338 26.8487 12.9338V12.9338ZM15.0124 9.81691C17.5769 9.81691 19.668 11.908 19.668 14.4725C19.668 17.0371 17.5769 19.1281 15.0124 19.1281C12.4479 19.1281 10.3568 17.0371 10.3568 14.4725C10.3568 11.8883 12.4281 9.81691 15.0124 9.81691ZM15.0124 27.8278V35.2255C10.2779 33.746 6.5297 30.0965 4.87262 25.4408C6.94397 23.2314 12.1125 22.1069 15.0124 22.1069C16.0579 22.1069 17.3797 22.2648 18.7606 22.5409C15.5253 24.2572 15.0124 26.5258 15.0124 27.8278ZM19.7272 35.9357C19.1946 35.9357 18.6817 35.916 18.1688 35.8568V27.8278C18.1688 25.0266 23.9685 23.6259 26.8487 23.6259C28.9595 23.6259 32.6091 24.3953 34.424 25.8946C32.1159 31.7535 26.4147 35.9357 19.7272 35.9357V35.9357Z" fill="white"/>
</svg>
