<?xml version="1.0" encoding="UTF-8"?>
<svg xmlns="http://www.w3.org/2000/svg" xmlns:xlink="http://www.w3.org/1999/xlink" viewBox="0 0 48 48" width="48px" height="48px">
<g id="surface1808426">
<path style=" stroke:none;fill-rule:nonzero;fill:rgb(40.000001%,40.000001%,40.000001%);fill-opacity:1;" d="M 24 4 C 20.492188 4 17.570312 6.621094 17.078125 10 L 6.5 10 C 5.960938 9.992188 5.457031 10.277344 5.183594 10.742188 C 4.910156 11.210938 4.910156 11.789062 5.183594 12.257812 C 5.457031 12.722656 5.960938 13.007812 6.5 13 L 8.636719 13 L 11.15625 39.03125 C 11.429688 41.863281 13.785156 44 16.632812 44 L 31.367188 44 C 34.214844 44 36.570312 41.863281 36.84375 39.03125 L 39.363281 13 L 41.5 13 C 42.039062 13.007812 42.542969 12.722656 42.816406 12.257812 C 43.089844 11.789062 43.089844 11.210938 42.816406 10.742188 C 42.542969 10.277344 42.039062 9.992188 41.5 10 L 30.921875 10 C 30.429688 6.621094 27.507812 4 24 4 Z M 24 7 C 25.878906 7 27.421875 8.269531 27.863281 10 L 20.140625 10 C 20.578125 8.269531 22.121094 7 24 7 Z M 19.5 18 C 20.328125 18 21 18.671875 21 19.5 L 21 34.5 C 21 35.328125 20.328125 36 19.5 36 C 18.671875 36 18 35.328125 18 34.5 L 18 19.5 C 18 18.671875 18.671875 18 19.5 18 Z M 28.5 18 C 29.328125 18 30 18.671875 30 19.5 L 30 34.5 C 30 35.328125 29.328125 36 28.5 36 C 27.671875 36 27 35.328125 27 34.5 L 27 19.5 C 27 18.671875 27.671875 18 28.5 18 Z M 28.5 18 "/>
</g>
</svg>
